<svg width="235" height="70" viewBox="0 0 235 70" fill="none" xmlns="http://www.w3.org/2000/svg">
<path d="M233.126 61.2951C233.126 62.1698 232.954 63.0359 232.619 63.844C232.284 64.6521 231.793 65.3862 231.174 66.0044C230.555 66.6226 229.82 67.1127 229.011 67.4468C228.203 67.7809 227.336 67.9524 226.461 67.9515H8.3411C6.57323 67.9534 4.877 67.2532 3.62546 66.0049C2.37392 64.7566 1.66954 63.0625 1.66724 61.2951V8.21202C1.66954 6.44382 2.37364 4.74879 3.62493 3.49914C4.87622 2.24948 6.57243 1.54733 8.3411 1.54688H226.46C227.335 1.54687 228.202 1.71929 229.011 2.05426C229.819 2.38924 230.554 2.88022 231.173 3.49916C231.792 4.11809 232.283 4.85287 232.618 5.66151C232.953 6.47015 233.125 7.33682 233.125 8.21202L233.126 61.2951Z" fill="white"/>
<path d="M226.461 69.5H8.34119C6.16338 69.4995 4.07468 68.6354 2.53343 67.0971C0.992181 65.5589 0.124261 63.4722 0.120117 61.295L0.120117 8.21368C0.123339 6.03536 0.990686 3.94726 2.53189 2.40745C4.07309 0.867631 6.1623 0.00183858 8.34119 0L226.46 0C228.638 0.00275599 230.727 0.868843 232.268 2.40846C233.809 3.94808 234.676 6.03565 234.681 8.21368V61.295C234.684 65.8207 230.99 69.5 226.461 69.5Z" fill="#A6A6A6"/>
<path d="M233.126 61.2951C233.126 62.1698 232.954 63.0359 232.619 63.844C232.284 64.6521 231.793 65.3862 231.174 66.0044C230.555 66.6226 229.82 67.1127 229.011 67.4468C228.203 67.7809 227.336 67.9524 226.461 67.9515H8.3411C6.57323 67.9534 4.877 67.2532 3.62546 66.0049C2.37392 64.7566 1.66954 63.0625 1.66724 61.2951V8.21202C1.66954 6.44382 2.37364 4.74879 3.62493 3.49914C4.87622 2.24948 6.57243 1.54733 8.3411 1.54688H226.46C227.335 1.54687 228.202 1.71929 229.011 2.05426C229.819 2.38924 230.554 2.88022 231.173 3.49916C231.792 4.11809 232.283 4.85287 232.618 5.66151C232.953 6.47015 233.125 7.33682 233.125 8.21202L233.126 61.2951Z" fill="black"/>
<path d="M52.4956 34.3843C52.4452 28.7828 57.0834 26.0577 57.2955 25.9308C54.6687 22.102 50.5973 21.5789 49.1665 21.5372C45.747 21.1774 42.4301 23.5828 40.6882 23.5828C38.9115 23.5828 36.2291 21.5719 33.3381 21.631C29.6178 21.6884 26.1374 23.8417 24.2286 27.1856C20.2893 34.0037 23.2273 44.0231 27.0014 49.5343C28.8894 52.2351 31.0955 55.247 33.983 55.141C36.808 55.0263 37.8632 53.3422 41.2723 53.3422C44.6501 53.3422 45.641 55.141 48.5859 55.0732C51.6177 55.0263 53.5265 52.362 55.3484 49.6386C57.5302 46.5467 58.4063 43.4983 58.4411 43.3419C58.3716 43.3175 52.5547 41.0964 52.4956 34.3843ZM46.9326 17.9118C48.452 16.0122 49.4916 13.4278 49.203 10.8052C47.0039 10.9025 44.2537 12.3259 42.67 14.1838C41.2688 15.821 40.0171 18.5044 40.3405 21.028C42.8108 21.2122 45.3472 19.7818 46.9326 17.9118Z" fill="white"/>
<path d="M226.461 0H109.63L155.391 69.5H226.461C228.64 69.4982 230.728 68.6328 232.269 67.0938C233.811 65.5547 234.678 63.4675 234.682 61.2898V8.21368C234.679 6.03551 233.811 3.94767 232.27 2.40795C230.729 0.868237 228.64 0.00229746 226.461 0Z" fill="url(#paint0_linear_141_6063)"/>
<path d="M93.4134 54.7531H89.4654L87.3028 47.9594H79.7858L77.7258 54.7531H73.8821L81.3313 31.6241H85.9312L93.4134 54.7531ZM86.6509 45.1091L84.6952 39.0696C84.4883 38.4526 84.0989 36.9997 83.5287 34.7125H83.4591C83.2297 35.6962 82.8629 37.1491 82.3604 39.0696L80.4377 45.1091H86.6509ZM112.533 46.2092C112.533 49.0456 111.763 51.2876 110.221 52.9335C108.84 54.3986 107.125 55.1303 105.078 55.1303C102.869 55.1303 101.28 54.343 100.315 52.7649V61.5156H96.6087V43.5571C96.6087 41.7756 96.5617 39.949 96.4713 38.0755H99.7309L99.9378 40.719H100.007C101.243 38.7272 103.119 37.7314 105.636 37.7314C107.604 37.7314 109.247 38.5082 110.561 40.0637C111.874 41.6227 112.533 43.67 112.533 46.2092ZM108.757 46.3448C108.757 44.7215 108.392 43.3833 107.658 42.3283C106.857 41.2317 105.781 40.6825 104.432 40.6825C103.517 40.6825 102.686 40.9883 101.944 41.5914C101.2 42.1997 100.713 42.994 100.485 43.9777C100.384 44.3455 100.326 44.7242 100.313 45.1056V47.8881C100.313 49.0995 100.685 50.1232 101.429 50.9609C102.173 51.7951 103.14 52.2139 104.329 52.2139C105.725 52.2139 106.812 51.6734 107.589 50.6011C108.367 49.5253 108.757 48.1071 108.757 46.3448ZM131.72 46.2092C131.72 49.0456 130.95 51.2876 129.408 52.9335C128.026 54.3986 126.312 55.1303 124.264 55.1303C122.054 55.1303 120.465 54.343 119.5 52.7649V61.5156H115.794V43.5571C115.794 41.7756 115.747 39.949 115.657 38.0755H118.916L119.123 40.719H119.193C120.427 38.7272 122.303 37.7314 124.822 37.7314C126.788 37.7314 128.431 38.5082 129.749 40.0637C131.059 41.6227 131.72 43.67 131.72 46.2092ZM127.942 46.3448C127.942 44.7215 127.575 43.3833 126.842 42.3283C126.04 41.2317 124.968 40.6825 123.619 40.6825C122.704 40.6825 121.873 40.9883 121.128 41.5914C120.384 42.1997 119.899 42.994 119.671 43.9777C119.558 44.4365 119.497 44.8102 119.497 45.1056V47.8881C119.497 49.0995 119.871 50.1232 120.611 50.9609C121.355 51.7934 122.322 52.2139 123.515 52.2139C124.912 52.2139 125.999 51.6734 126.774 50.6011C127.553 49.5253 127.942 48.1071 127.942 46.3448ZM153.172 48.2653C153.172 50.2344 152.484 51.8351 151.116 53.0708C149.61 54.4194 147.508 55.0955 144.814 55.0955C142.324 55.0955 140.329 54.6158 138.823 53.6547L139.68 50.5663C141.306 51.5292 143.091 52.0089 145.035 52.0089C146.432 52.0089 147.519 51.6925 148.294 51.0651C149.071 50.436 149.464 49.5948 149.464 48.5451C149.464 47.6048 149.139 46.8175 148.501 46.1762C147.86 45.5366 146.799 44.9405 145.309 44.393C141.259 42.8827 139.232 40.6738 139.232 37.7679C139.232 35.87 139.948 34.3162 141.377 33.1014C142.806 31.8883 144.701 31.2817 147.058 31.2817C149.163 31.2817 150.918 31.6485 152.31 32.3801L151.38 35.4007C150.069 34.6916 148.59 34.3371 146.935 34.3371C145.627 34.3371 144.602 34.6586 143.868 35.2982C143.251 35.87 142.938 36.5669 142.938 37.3942C142.938 38.3066 143.294 39.0644 144.004 39.6588C144.619 40.2063 145.742 40.8024 147.366 41.442C149.358 42.2449 150.822 43.1799 151.759 44.254C152.703 45.3281 153.172 46.6681 153.172 48.2653ZM165.458 40.8563H161.372V48.9535C161.372 51.013 162.092 52.0401 163.535 52.0401C164.197 52.0401 164.747 51.9845 165.181 51.8681L165.284 54.6819C164.554 54.9547 163.592 55.092 162.402 55.092C160.938 55.092 159.794 54.6454 158.968 53.7521C158.146 52.8587 157.732 51.3623 157.732 49.2559V40.8493H155.298V38.0685H157.732V35.0149L161.372 33.9165V38.0685H165.458V40.8563ZM183.854 46.277C183.854 48.8405 183.12 50.9452 181.657 52.5911C180.125 54.2856 178.088 55.1303 175.548 55.1303C173.097 55.1303 171.148 54.3186 169.694 52.6971C168.241 51.0721 167.514 49.0248 167.514 46.5551C167.514 43.9707 168.265 41.8539 169.762 40.208C171.262 38.5604 173.283 37.7366 175.822 37.7366C178.27 37.7366 180.236 38.55 181.724 40.1732C183.146 41.7478 183.854 43.7813 183.854 46.277ZM180.012 46.3622C180.012 44.8345 179.682 43.5241 179.019 42.4274C178.242 41.1031 177.13 40.4409 175.689 40.4409C174.204 40.4409 173.065 41.1031 172.29 42.4274C171.626 43.5241 171.295 44.8571 171.295 46.4317C171.295 47.9611 171.626 49.275 172.29 50.3682C173.091 51.6926 174.209 52.3547 175.657 52.3547C177.074 52.3547 178.185 51.6786 178.988 50.3352C179.67 49.2125 180.012 47.8933 180.012 46.3622ZM195.907 41.3342C195.521 41.2646 195.13 41.2303 194.738 41.2317C193.434 41.2317 192.426 41.7218 191.717 42.7089C191.102 43.5779 190.792 44.6763 190.792 46.0024V54.7531H187.086V43.3277C187.089 41.5769 187.053 39.8264 186.978 38.0772H190.206L190.342 41.2682H190.444C190.837 40.1715 191.453 39.2869 192.298 38.6247C193.071 38.0461 194.011 37.7327 194.976 37.7314C195.319 37.7314 195.628 37.7557 195.903 37.7992L195.907 41.3342ZM212.483 45.6253C212.492 46.1885 212.447 46.7514 212.347 47.3059H201.228C201.27 48.9535 201.809 50.2153 202.841 51.0843C203.778 51.8594 204.99 52.2487 206.478 52.2487C208.124 52.2487 209.626 51.988 210.977 51.4614L211.558 54.0319C209.979 54.7201 208.116 55.0625 205.965 55.0625C203.378 55.0625 201.348 54.3013 199.87 52.7823C198.396 51.2615 197.657 49.2177 197.657 46.6576C197.657 44.1445 198.344 42.0502 199.719 40.38C201.158 38.5969 203.104 37.7053 205.551 37.7053C207.956 37.7053 209.776 38.5969 211.012 40.38C211.991 41.793 212.483 43.5449 212.483 45.6253ZM208.948 44.6642C208.974 43.564 208.731 42.6168 208.229 41.8156C207.587 40.7833 206.6 40.2688 205.277 40.2688C204.065 40.2688 203.078 40.7711 202.327 41.7791C201.709 42.5803 201.343 43.5432 201.23 44.6607L208.948 44.6642Z" fill="white"/>
<path d="M78.7165 23.4473C77.6856 23.4473 76.7938 23.3969 76.0515 23.3117V12.1295C77.0897 11.9692 78.1389 11.8902 79.1894 11.8932C83.4399 11.8932 85.3974 13.984 85.3974 17.3921C85.3974 21.3234 83.0852 23.4473 78.7165 23.4473ZM79.3389 13.327C78.7652 13.327 78.2767 13.3618 77.8717 13.4452V21.9456C78.0907 21.9804 78.5114 21.996 79.1025 21.996C81.8874 21.996 83.4729 20.411 83.4729 17.4425C83.4729 14.7956 82.0387 13.327 79.3389 13.327ZM91.4975 23.5324C89.102 23.5324 87.5495 21.744 87.5495 19.3161C87.5495 16.7856 89.135 14.9816 91.6331 14.9816C93.9939 14.9816 95.5811 16.6848 95.5811 19.1823C95.5811 21.744 93.9453 23.5324 91.4975 23.5324ZM91.5671 16.3129C90.2511 16.3129 89.4079 17.5433 89.4079 19.2639C89.4079 20.9515 90.2685 22.182 91.5497 22.182C92.8309 22.182 93.6914 20.8664 93.6914 19.2292C93.6914 17.5607 92.8483 16.3129 91.5671 16.3129ZM109.242 15.1501L106.678 23.3464H105.007L103.945 19.7871C103.681 18.9164 103.461 18.033 103.286 17.1401H103.251C103.117 18.0335 102.863 18.9285 102.594 19.7871L101.464 23.3464H99.776L97.363 15.1501H99.2353L100.164 19.0467C100.383 19.9748 100.567 20.8507 100.72 21.678H100.755C100.889 20.988 101.108 20.126 101.429 19.0641L102.594 15.1519H104.079L105.193 18.9806C105.462 19.9087 105.681 20.8194 105.852 21.6797H105.9C106.019 20.8368 106.205 19.9417 106.457 18.9806L107.453 15.1519L109.242 15.1501ZM118.681 23.3464H116.86V18.64C116.86 17.1905 116.303 16.4641 115.206 16.4641C114.127 16.4641 113.384 17.3921 113.384 18.4714V23.3464H111.563V17.4929C111.563 16.7682 111.545 15.9913 111.495 15.1484H113.098L113.183 16.4137H113.233C113.723 15.5377 114.718 14.9816 115.832 14.9816C117.553 14.9816 118.683 16.2972 118.683 18.4384L118.681 23.3464ZM123.706 23.3464H121.882V11.3892H123.706V23.3464ZM130.348 23.5324C127.954 23.5324 126.4 21.744 126.4 19.3161C126.4 16.7856 127.986 14.9816 130.482 14.9816C132.845 14.9816 134.43 16.6848 134.43 19.1823C134.432 21.744 132.794 23.5324 130.348 23.5324ZM130.416 16.3129C129.1 16.3129 128.257 17.5433 128.257 19.2639C128.257 20.9515 129.119 22.182 130.397 22.182C131.68 22.182 132.539 20.8664 132.539 19.2292C132.54 17.5607 131.699 16.3129 130.416 16.3129ZM141.613 23.3464L141.481 22.4027H141.432C140.876 23.1622 140.064 23.5324 139.035 23.5324C137.566 23.5324 136.523 22.5035 136.523 21.1201C136.523 19.0971 138.277 18.0508 141.314 18.0508V17.8996C141.314 16.8203 140.742 16.2798 139.612 16.2798C138.804 16.2798 138.095 16.4832 137.471 16.8881L137.1 15.6907C137.858 15.2179 138.804 14.9816 139.915 14.9816C142.057 14.9816 143.138 16.1112 143.138 18.3724V21.3912C143.138 22.2185 143.174 22.8598 143.256 23.3482L141.613 23.3464ZM141.363 19.2639C139.339 19.2639 138.324 19.754 138.324 20.9168C138.324 21.7771 138.847 22.1976 139.574 22.1976C140.501 22.1976 141.363 21.4903 141.363 20.5292V19.2639ZM151.985 23.3464L151.9 22.0308H151.849C151.326 23.0249 150.446 23.5324 149.217 23.5324C147.241 23.5324 145.777 21.7944 145.777 19.3491C145.777 16.7856 147.294 14.9798 149.367 14.9798C150.464 14.9798 151.241 15.35 151.679 16.0939H151.715V11.3892H153.539V21.1375C153.539 21.93 153.558 22.6721 153.607 23.3464H151.985ZM151.715 18.5236C151.715 17.3765 150.956 16.398 149.796 16.398C148.445 16.398 147.62 17.5955 147.62 19.2813C147.62 20.9341 148.477 22.0656 149.76 22.0656C150.905 22.0656 151.715 21.0697 151.715 19.8896V18.5236ZM165.101 23.5324C162.707 23.5324 161.155 21.744 161.155 19.3161C161.155 16.7856 162.74 14.9816 165.237 14.9816C167.599 14.9816 169.185 16.6848 169.185 19.1823C169.187 21.744 167.551 23.5324 165.101 23.5324ZM165.169 16.3129C163.855 16.3129 163.012 17.5433 163.012 19.2639C163.012 20.9515 163.872 22.182 165.152 22.182C166.435 22.182 167.293 20.8664 167.293 19.2292C167.297 17.5607 166.454 16.3129 165.169 16.3129ZM178.983 23.3464H177.159V18.64C177.159 17.1905 176.603 16.4641 175.506 16.4641C174.426 16.4641 173.686 17.3921 173.686 18.4714V23.3464H171.862V17.4929C171.862 16.7682 171.845 15.9913 171.794 15.1484H173.397L173.482 16.4137H173.533C174.021 15.5377 175.017 14.9798 176.13 14.9798C177.851 14.9798 178.983 16.2955 178.983 18.4367V23.3464ZM191.24 16.5162H189.236V20.4962C189.236 21.5094 189.587 22.0152 190.296 22.0152C190.618 22.0152 190.888 21.9804 191.105 21.93L191.155 23.3134C190.802 23.449 190.329 23.5168 189.742 23.5168C188.306 23.5168 187.447 22.7243 187.447 20.6491V16.5162H186.251V15.1501H187.447V13.6485L189.236 13.108V15.1484H191.24V16.5162ZM200.885 23.3464H199.065V18.6748C199.065 17.2079 198.511 16.4658 197.412 16.4658C196.468 16.4658 195.588 17.1071 195.588 18.4054V23.3464H193.768V11.3892H195.588V16.3129H195.625C196.198 15.4195 197.029 14.9798 198.09 14.9798C199.825 14.9798 200.885 16.3285 200.885 18.4714V23.3464ZM210.767 19.6863H205.299C205.334 21.2383 206.361 22.1142 207.883 22.1142C208.691 22.1142 209.435 21.9787 210.092 21.7267L210.375 22.9919C209.6 23.3291 208.687 23.4977 207.625 23.4977C205.061 23.4977 203.543 21.8779 203.543 19.3665C203.543 16.8534 205.098 14.9642 207.42 14.9642C209.515 14.9642 210.829 16.5162 210.829 18.8607C210.841 19.1374 210.82 19.4145 210.767 19.6863ZM209.096 18.388C209.096 17.1227 208.458 16.2294 207.293 16.2294C206.247 16.2294 205.419 17.1401 205.301 18.388H209.096Z" fill="white"/>
<defs>
<linearGradient id="paint0_linear_141_6063" x1="172.154" y1="69.6845" x2="172.154" y2="-180.966" gradientUnits="userSpaceOnUse">
<stop stop-color="#1A1A1A" stop-opacity="0.1"/>
<stop offset="0.123" stop-color="#212121" stop-opacity="0.151"/>
<stop offset="0.308" stop-color="#353535" stop-opacity="0.227"/>
<stop offset="0.532" stop-color="#575757" stop-opacity="0.318"/>
<stop offset="0.783" stop-color="#858585" stop-opacity="0.421"/>
<stop offset="1" stop-color="#B3B3B3" stop-opacity="0.51"/>
</linearGradient>
</defs>
</svg>