<svg width="236" height="70" viewBox="0 0 236 70" fill="none" xmlns="http://www.w3.org/2000/svg">
<path d="M233.528 61.2951C233.528 62.1698 233.355 63.0359 233.02 63.844C232.685 64.6521 232.194 65.3862 231.575 66.0044C230.956 66.6226 230.221 67.1127 229.412 67.4468C228.604 67.7809 227.737 67.9524 226.862 67.9515H8.74222C6.97435 67.9534 5.27813 67.2532 4.02658 66.0049C2.77504 64.7566 2.07066 63.0625 2.06836 61.2951V8.21202C2.07066 6.44382 2.77476 4.74879 4.02605 3.49914C5.27735 2.24948 6.97355 1.54733 8.74222 1.54688H226.861C227.736 1.54687 228.603 1.71929 229.412 2.05426C230.22 2.38924 230.955 2.88022 231.574 3.49916C232.193 4.11809 232.684 4.85287 233.019 5.66151C233.354 6.47015 233.526 7.33682 233.526 8.21202L233.528 61.2951Z" fill="white"/>
<path d="M226.862 69.5H8.74232C6.5645 69.4995 4.47581 68.6354 2.93456 67.0971C1.3933 65.5589 0.525384 63.4722 0.52124 61.295L0.52124 8.21368C0.524462 6.03536 1.39181 3.94726 2.93301 2.40745C4.47421 0.867631 6.56342 0.00183858 8.74232 0L226.861 0C229.039 0.00275599 231.128 0.868843 232.669 2.40846C234.21 3.94808 235.078 6.03565 235.082 8.21368V61.295C235.085 65.8207 231.391 69.5 226.862 69.5Z" fill="#A6A6A6"/>
<path d="M233.528 61.2951C233.528 62.1698 233.355 63.0359 233.02 63.844C232.685 64.6521 232.194 65.3862 231.575 66.0044C230.956 66.6226 230.221 67.1127 229.412 67.4468C228.604 67.7809 227.737 67.9524 226.862 67.9515H8.74222C6.97435 67.9534 5.27813 67.2532 4.02658 66.0049C2.77504 64.7566 2.07066 63.0625 2.06836 61.2951V8.21202C2.07066 6.44382 2.77476 4.74879 4.02605 3.49914C5.27735 2.24948 6.97355 1.54733 8.74222 1.54688H226.861C227.736 1.54687 228.603 1.71929 229.412 2.05426C230.22 2.38924 230.955 2.88022 231.574 3.49916C232.193 4.11809 232.684 4.85287 233.019 5.66151C233.354 6.47015 233.526 7.33682 233.526 8.21202L233.528 61.2951Z" fill="black"/>
<path d="M226.863 0H110.031L155.792 69.5H226.863C229.041 69.4982 231.129 68.6328 232.671 67.0938C234.212 65.5547 235.079 63.4675 235.084 61.2898V8.21368C235.08 6.03551 234.212 3.94767 232.671 2.40795C231.13 0.868237 229.041 0.00229746 226.863 0Z" fill="url(#paint0_linear_757_922)"/>
<path d="M79.7784 43.6619L76.1313 33.812L72.5019 43.6619H79.7748H79.7784ZM67.0701 50.97L74.6282 31.1683H77.6556L85.2137 50.97H82.4221L80.6162 45.8867H71.6993L69.8933 50.97H67.0701ZM90.3463 48.7452V56.6201H87.9067V36.1178H90.3463V38.3603C90.8603 37.4767 91.508 36.8254 92.2895 36.403C93.0816 35.9665 94.0145 35.7517 95.0987 35.7517C96.9046 35.7517 98.3691 36.4699 99.4956 37.9097C100.633 39.3354 101.199 41.2223 101.199 43.5633C101.199 45.9043 100.633 47.7736 99.4956 49.2169C98.3691 50.6426 96.9046 51.3573 95.0987 51.3573C94.018 51.3573 93.0851 51.1495 92.2895 50.7236C91.508 50.2871 90.8638 49.6253 90.3463 48.7487V48.7452ZM98.6542 43.5598C98.6542 41.7644 98.2811 40.3563 97.5348 39.3319C96.8096 38.3075 95.8028 37.7935 94.5073 37.7935C93.2118 37.7935 92.191 38.3075 91.4447 39.3319C90.7089 40.3563 90.3393 41.7644 90.3393 43.5598C90.3393 45.3551 90.7089 46.7633 91.4447 47.7877C92.191 48.8015 93.2118 49.312 94.5073 49.312C95.8028 49.312 96.8096 48.8015 97.5348 47.7877C98.2811 46.7633 98.6542 45.3551 98.6542 43.5598ZM107.603 48.7452V56.6201H105.146V36.1178H107.603V38.3603C108.117 37.4767 108.758 36.8254 109.528 36.403C110.321 35.9665 111.26 35.7517 112.352 35.7517C114.147 35.7517 115.608 36.4699 116.735 37.9097C117.872 39.3354 118.438 41.2223 118.438 43.5633C118.438 45.9043 117.872 47.7736 116.735 49.2169C115.608 50.6426 114.147 51.3573 112.352 51.3573C111.26 51.3573 110.321 51.1495 109.528 50.7236C108.758 50.2871 108.113 49.6253 107.603 48.7487V48.7452ZM115.897 43.5598C115.897 41.7644 115.524 40.3563 114.777 39.3319C114.052 38.3075 113.045 37.7935 111.75 37.7935C110.454 37.7935 109.433 38.3075 108.687 39.3319C107.962 40.3563 107.599 41.7644 107.599 43.5598C107.599 45.3551 107.962 46.7633 108.687 47.7877C109.433 48.8015 110.454 49.312 111.75 49.312C113.045 49.312 114.052 48.8015 114.777 47.7877C115.524 46.7633 115.897 45.3551 115.897 43.5598ZM135.998 48.1432V42.8275H131.632V40.6203H138.655V49.1324C137.62 49.8682 136.476 50.4244 135.227 50.801C133.988 51.1707 132.664 51.3502 131.249 51.3502C128.147 51.3502 125.725 50.4455 123.976 48.6396C122.237 46.8337 121.367 44.3166 121.367 41.0815C121.367 37.8463 122.24 35.3293 123.976 33.5234C125.725 31.7069 128.154 30.7951 131.249 30.7951C132.541 30.7951 133.762 30.9606 134.91 31.2809C136.082 31.5907 137.156 32.0625 138.138 32.6855V35.544C137.149 34.6956 136.096 34.062 134.98 33.636C133.864 33.2101 132.692 33.0024 131.471 33.0024C129.052 33.0024 127.232 33.6748 126.003 35.023C124.8 36.3819 124.198 38.4025 124.198 41.0744C124.198 43.7463 124.796 45.76 126.003 47.1082C127.232 48.4565 129.056 49.1289 131.471 49.1289C132.417 49.1289 133.266 49.0479 134.012 48.8965C134.748 48.7381 135.41 48.4847 135.998 48.1397V48.1432ZM152.536 43.4894H150.114C148.139 43.4894 146.773 43.7147 146.016 44.1758C145.26 44.6229 144.879 45.3938 144.879 46.4851C144.879 47.3582 145.161 48.0482 145.735 48.5586C146.302 49.062 147.076 49.312 148.062 49.312C149.421 49.312 150.508 48.8297 151.322 47.8757C152.138 46.9181 152.543 45.6403 152.543 44.0421V43.4929H152.536V43.4894ZM154.976 42.4861V50.9665H152.536V48.7065C151.98 49.6112 151.286 50.28 150.463 50.7166C149.625 51.1425 148.607 51.3502 147.4 51.3502C145.883 51.3502 144.672 50.9243 143.77 50.0759C142.876 49.2169 142.436 48.0658 142.436 46.6295C142.436 44.9714 142.992 43.7076 144.105 42.8487C145.231 42.0003 146.9 41.5743 149.121 41.5743H152.536V41.342C152.536 40.2155 152.166 39.3424 151.431 38.7334C150.695 38.1209 149.66 37.8182 148.322 37.8182C147.474 37.8182 146.654 37.9202 145.847 38.1174C145.045 38.3145 144.267 38.6278 143.521 39.0327V36.7726C144.415 36.4276 145.281 36.1742 146.129 36.0017C146.967 35.8221 147.777 35.7341 148.569 35.7341C150.72 35.7341 152.328 36.2903 153.384 37.4028C154.444 38.5293 154.969 40.2155 154.969 42.479L154.976 42.4861ZM160.006 50.9665V30.334H162.446V50.9665H160.006ZM167.55 50.9665V30.334H169.99V50.9665H167.55ZM187.728 42.9226V44.1265H176.509C176.611 45.7952 177.108 47.0801 178.016 47.9707C178.928 48.8437 180.195 49.2732 181.814 49.2732C182.747 49.2732 183.656 49.1606 184.525 48.9388C185.419 48.7064 186.292 48.3615 187.151 47.9038V50.2132C186.278 50.5828 185.384 50.8644 184.458 51.0686C183.546 51.2552 182.614 51.3502 181.667 51.3502C179.301 51.3502 177.428 50.6602 176.027 49.2767C174.647 47.9073 173.954 46.0451 173.954 43.69C173.954 41.3349 174.612 39.3213 175.928 37.9062C177.242 36.4699 179.019 35.7482 181.244 35.7482C183.244 35.7482 184.817 36.3924 185.975 37.6914C187.141 38.9693 187.725 40.7154 187.725 42.9226H187.728ZM176.576 42.2221H185.289C185.268 40.8879 184.888 39.8177 184.152 39.0115C183.427 38.2195 182.466 37.8217 181.258 37.8217C179.899 37.8217 178.808 38.2054 177.981 38.9763C177.164 39.7473 176.703 40.828 176.576 42.2185V42.2221ZM200.236 35.882L200.254 38.3884C199.976 38.23 199.676 38.1174 199.349 38.0364C199.022 37.9554 198.677 37.9167 198.296 37.9167C196.916 37.9167 195.85 38.3708 195.104 39.2685C194.368 40.1627 193.998 41.4476 193.998 43.1303V50.9595H191.559V36.1108H193.998V38.4201C194.512 37.5154 195.181 36.8466 196.008 36.41C196.836 35.963 197.832 35.7412 199.004 35.7412C199.173 35.7412 199.36 35.7588 199.571 35.7905C199.768 35.801 199.997 35.8292 200.24 35.8749L200.236 35.882ZM215.521 36.1143L209.002 52.3359C208.312 54.1066 207.636 55.2683 206.981 55.8104C206.323 56.349 205.446 56.6131 204.355 56.6131H202.398V54.5748H203.834C204.503 54.5748 205.027 54.4093 205.407 54.089C205.777 53.7792 206.182 53.0259 206.629 51.829L207.083 50.7236L201.06 36.1073H203.651L208.298 47.7102L212.927 36.1073H215.518L215.521 36.1143Z" fill="white"/>
<path d="M66.9185 24.2121V13.9962H73.3712V15.1508H68.2879V18.1783H73.1564V19.3506H68.2879V23.0469H73.5085V24.2191H66.9185V24.2121ZM78.4615 18.7627L75.2862 13.9962H76.7753L79.317 17.7946L81.8586 13.9962H83.3477L80.0703 18.8964L83.5625 24.2121H82.0734L79.2149 19.8645L76.3071 24.2121H74.818L78.4651 18.7627H78.4615ZM88.4909 15.1332H86.7519V18.9669H88.4909C89.1351 18.9669 89.6385 18.8014 89.9976 18.4811C90.3426 18.1466 90.5186 17.6643 90.5186 17.0448C90.5186 16.4252 90.3426 15.9746 89.9976 15.6402C89.642 15.3057 89.1386 15.1368 88.4909 15.1368V15.1332ZM85.3825 24.2121V13.9962H88.4909C89.6385 13.9962 90.5045 14.2497 91.0994 14.7671C91.6768 15.2952 91.9725 16.045 91.9725 17.0412C91.9725 18.0375 91.6838 18.819 91.0994 19.333C90.5115 19.8469 89.6385 20.1039 88.4909 20.1039H86.7519V24.2191H85.3825V24.2121ZM93.8277 24.2121V13.9962H95.2147V23.0434H100.196V24.2156H93.8277V24.2121ZM105.297 14.9361C104.294 14.9361 103.491 15.3093 102.892 16.0556C102.315 16.8019 102.019 17.8228 102.019 19.1182C102.019 20.4137 102.308 21.4205 102.892 22.1809C103.491 22.9272 104.297 23.3004 105.297 23.3004C106.297 23.3004 107.092 22.9272 107.67 22.1809C108.257 21.424 108.557 20.4031 108.557 19.1182C108.557 17.8333 108.261 16.8019 107.67 16.0556C107.092 15.3022 106.3 14.9361 105.297 14.9361ZM105.297 13.8167C106.723 13.8167 107.867 14.2989 108.726 15.2529C109.585 16.2105 110.011 17.4989 110.011 19.1147C110.011 20.7305 109.581 22.0189 108.726 22.9765C107.867 23.934 106.723 24.4128 105.297 24.4128C103.871 24.4128 102.706 23.9305 101.833 22.9765C100.974 22.0189 100.548 20.7305 100.548 19.1147C100.548 17.4989 100.977 16.2105 101.833 15.2529C102.706 14.2919 103.861 13.8167 105.297 13.8167ZM117.019 19.4139C117.319 19.516 117.607 19.7308 117.892 20.0652C118.171 20.3891 118.452 20.8396 118.748 21.417L120.153 24.2086H118.663L117.361 21.5824C117.016 20.903 116.689 20.4489 116.375 20.2306C116.051 20.0089 115.618 19.8962 115.073 19.8962H113.566V24.2086H112.179V13.9962H115.305C116.477 13.9962 117.347 14.2391 117.931 14.7319C118.498 15.2142 118.787 15.95 118.787 16.9392C118.787 17.5834 118.635 18.122 118.333 18.5479C118.023 18.9669 117.59 19.2625 117.019 19.4139ZM115.298 15.1332H113.559V18.7627H115.298C115.967 18.7627 116.47 18.6043 116.805 18.2945C117.15 17.9847 117.326 17.5306 117.326 16.9427C117.326 16.3548 117.15 15.8901 116.805 15.5909C116.47 15.2917 115.967 15.1368 115.298 15.1368V15.1332ZM121.92 24.2121V13.9962H128.372V15.1508H123.307V18.1783H128.175V19.3506H123.307V23.0469H128.51V24.2191H121.92V24.2121ZM135.226 24.2121V13.9962H136.613V24.2121H135.226ZM137.955 15.1508V13.9962H146.597V15.1508H142.968V24.2121H141.581V15.1508H137.951H137.955ZM156.531 14.9361C155.528 14.9361 154.732 15.3093 154.141 16.0556C153.553 16.8019 153.254 17.8228 153.254 19.1182C153.254 20.4137 153.55 21.4205 154.141 22.1809C154.729 22.9272 155.528 23.3004 156.531 23.3004C157.535 23.3004 158.33 22.9272 158.922 22.1809C159.499 21.424 159.795 20.4031 159.795 19.1182C159.795 17.8333 159.506 16.8019 158.922 16.0556C158.334 15.3022 157.535 14.9361 156.531 14.9361ZM156.531 13.8167C157.968 13.8167 159.119 14.2989 159.978 15.2529C160.837 16.2069 161.263 17.4989 161.263 19.1147C161.263 20.7305 160.833 22.0189 159.978 22.9765C159.122 23.934 157.968 24.4128 156.531 24.4128C155.095 24.4128 153.944 23.9305 153.085 22.9765C152.226 22.0189 151.8 20.7305 151.8 19.1147C151.8 17.4989 152.23 16.2105 153.085 15.2529C153.944 14.2919 155.095 13.8167 156.531 13.8167ZM163.421 24.2156V13.9997H165.276L169.81 22.547V13.9997H171.162V24.2156H169.289L164.755 15.6683V24.2156H163.421Z" fill="white"/>
<path d="M52.1756 13H28.4875C23.5356 13 19.5212 17.0143 19.5212 21.9662V45.6543C19.5212 50.6063 23.5356 54.6206 28.4875 54.6206H52.1756C57.1275 54.6206 61.1418 50.6063 61.1418 45.6543V21.9662C61.1418 17.0143 57.1275 13 52.1756 13Z" fill="#E14459"/>
<path d="M29.6667 15.7212C29.0119 15.7212 28.4839 16.2492 28.4839 16.9005C28.4839 17.5518 29.0155 18.0798 29.6667 18.0798C30.3215 18.0798 30.8495 17.5518 30.8495 16.9005C30.8495 16.2457 30.318 15.7212 29.6632 15.7212H29.6667ZM50.8449 15.7212C50.1901 15.7212 49.662 16.2492 49.662 16.9005C49.662 17.5518 50.1936 18.0798 50.8484 18.0798C51.5032 18.0798 52.0312 17.5518 52.0312 16.9005C52.0312 16.2457 51.4996 15.7212 50.8449 15.7212Z" fill="#C73148"/>
<path d="M29.6174 16.7385C29.2055 16.7596 29.2266 17.3581 29.2266 17.3581C31.4374 21.667 35.5104 23.7791 40.2065 23.7791C44.8955 23.7721 49.0072 21.6353 51.218 17.337C51.218 17.337 51.306 16.5273 50.4435 16.8089C48.18 20.5616 44.3745 22.7829 40.21 22.7899C36.0384 22.7899 32.2471 20.5933 29.9765 16.8336C29.8286 16.7632 29.7124 16.7385 29.6174 16.742V16.7385ZM44.5857 33.4776L43.329 37.2232L42.1039 33.4776H40.907L42.8361 38.9235H43.7655L45.0258 35.3469L46.286 38.9235H47.226L49.1516 33.4776H47.9863L46.7578 37.2232L45.501 33.4776H44.5857ZM37.9042 33.4776L35.4646 38.9235H36.6122L37.084 37.8709L37.1192 37.7899H39.6538L40.1501 38.9235H41.3294L38.911 33.5093L38.8899 33.4776H37.9077H37.9042ZM55.5832 33.4776V38.92H56.6921V33.4776H55.5832ZM23.7737 33.4776V38.927H24.8967V36.7127H27.4348V38.9235H28.5613V33.474H27.4383V35.6707H24.9002V33.474H23.7737V33.4776ZM33.7678 33.4776V36.5966C33.7678 37.4837 33.3208 37.9554 32.5076 37.9554C31.6944 37.9554 31.2402 37.4696 31.2402 36.5578V33.4811H30.1138V36.5966C30.1138 38.1279 30.9797 39.008 32.49 39.008C34.0002 39.008 34.8873 38.1138 34.8873 36.5508V33.4776H33.7643H33.7678ZM50.0633 33.4776V38.92H54.249V37.9272H51.1722V36.579H53.2175V35.5862H51.1722V34.4738H54.1398V33.4811H50.0633V33.4776ZM38.3829 34.8505L39.1856 36.674L39.2419 36.8007H37.5416L37.5944 36.674L38.3865 34.8505H38.3829Z" fill="white"/>
<defs>
<linearGradient id="paint0_linear_757_922" x1="172.555" y1="69.6845" x2="172.555" y2="-180.966" gradientUnits="userSpaceOnUse">
<stop stop-color="#1A1A1A" stop-opacity="0.1"/>
<stop offset="0.123" stop-color="#212121" stop-opacity="0.151"/>
<stop offset="0.308" stop-color="#353535" stop-opacity="0.227"/>
<stop offset="0.532" stop-color="#575757" stop-opacity="0.318"/>
<stop offset="0.783" stop-color="#858585" stop-opacity="0.421"/>
<stop offset="1" stop-color="#B3B3B3" stop-opacity="0.51"/>
</linearGradient>
</defs>
</svg>