<svg width="235" height="70" viewBox="0 0 235 70" fill="none" xmlns="http://www.w3.org/2000/svg">
<path d="M226.193 69.5H9.00513C4.14013 69.5 0.317627 65.6775 0.317627 60.8125V8.6875C0.317627 3.8225 4.14013 0 9.00513 0H226.193C231.058 0 234.88 3.8225 234.88 8.6875V60.8125C234.88 65.6775 231.058 69.5 226.193 69.5Z" fill="black"/>
<path d="M226.193 1.39C230.189 1.39 233.49 4.69125 233.49 8.6875V60.8125C233.49 64.8087 230.189 68.11 226.193 68.11H9.00513C5.00888 68.11 1.70763 64.8087 1.70763 60.8125V8.6875C1.70763 4.69125 5.00888 1.39 9.00513 1.39H226.193ZM226.193 0H9.00513C4.14013 0 0.317627 3.99625 0.317627 8.6875V60.8125C0.317627 65.6775 4.14013 69.5 9.00513 69.5H226.193C231.058 69.5 234.88 65.6775 234.88 60.8125V8.6875C234.88 3.99625 231.058 0 226.193 0Z" fill="#A6A6A6"/>
<path d="M82.675 17.7225C82.675 19.1125 82.3275 20.3288 81.4587 21.1975C80.4162 22.24 79.2 22.7613 77.6362 22.7613C76.0725 22.7613 74.8562 22.24 73.8137 21.1975C72.7712 20.155 72.25 18.9388 72.25 17.375C72.25 15.8113 72.7712 14.595 73.8137 13.5525C74.8562 12.51 76.0725 11.9888 77.6362 11.9888C78.3312 11.9888 79.0262 12.1625 79.7212 12.51C80.4162 12.8575 80.9375 13.205 81.285 13.7263L80.4162 14.595C79.7212 13.7263 78.8525 13.3788 77.6362 13.3788C76.5937 13.3788 75.5512 13.7263 74.8562 14.595C73.9875 15.29 73.64 16.3325 73.64 17.5488C73.64 18.765 73.9875 19.8075 74.8562 20.5025C75.725 21.1975 76.5937 21.7188 77.6362 21.7188C78.8525 21.7188 79.7212 21.3713 80.59 20.5025C81.1112 19.9813 81.4587 19.2863 81.4587 18.4175H77.6362V17.0275H82.675V17.7225ZM90.6675 13.3788H85.9762V16.68H90.32V17.8963H85.9762V21.1975H90.6675V22.5875H84.5862V12.1625H90.6675V13.3788ZM96.4012 22.5875H95.0112V13.3788H92.0575V12.1625H99.355V13.3788H96.4012V22.5875ZM104.394 22.5875V12.1625H105.784V22.5875H104.394ZM111.691 22.5875H110.301V13.3788H107.347V12.1625H114.471V13.3788H111.517V22.5875H111.691ZM128.197 21.1975C127.155 22.24 125.939 22.7613 124.375 22.7613C122.811 22.7613 121.595 22.24 120.552 21.1975C119.51 20.155 118.989 18.9388 118.989 17.375C118.989 15.8113 119.51 14.595 120.552 13.5525C121.595 12.51 122.811 11.9888 124.375 11.9888C125.939 11.9888 127.155 12.51 128.197 13.5525C129.24 14.595 129.761 15.8113 129.761 17.375C129.761 18.9388 129.24 20.155 128.197 21.1975ZM121.595 20.3288C122.29 21.0238 123.332 21.545 124.375 21.545C125.417 21.545 126.46 21.1975 127.155 20.3288C127.85 19.6338 128.371 18.5913 128.371 17.375C128.371 16.1588 128.024 15.1163 127.155 14.4213C126.46 13.7263 125.417 13.205 124.375 13.205C123.332 13.205 122.29 13.5525 121.595 14.4213C120.9 15.1163 120.379 16.1588 120.379 17.375C120.379 18.5913 120.726 19.6338 121.595 20.3288ZM131.672 22.5875V12.1625H133.236L138.275 20.3288V12.1625H139.665V22.5875H138.275L132.889 14.0738V22.5875H131.672Z" fill="white"/>
<path d="M118.641 37.8774C114.471 37.8774 111.17 41.0049 111.17 45.3487C111.17 49.5187 114.471 52.8199 118.641 52.8199C122.811 52.8199 126.113 49.6924 126.113 45.3487C126.113 40.8312 122.811 37.8774 118.641 37.8774ZM118.641 49.6924C116.383 49.6924 114.471 47.7812 114.471 45.1749C114.471 42.5687 116.383 40.6574 118.641 40.6574C120.9 40.6574 122.811 42.3949 122.811 45.1749C122.811 47.7812 120.9 49.6924 118.641 49.6924ZM102.483 37.8774C98.3125 37.8774 95.0113 41.0049 95.0113 45.3487C95.0113 49.5187 98.3125 52.8199 102.483 52.8199C106.653 52.8199 109.954 49.6924 109.954 45.3487C109.954 40.8312 106.653 37.8774 102.483 37.8774ZM102.483 49.6924C100.224 49.6924 98.3125 47.7812 98.3125 45.1749C98.3125 42.5687 100.224 40.6574 102.483 40.6574C104.741 40.6574 106.653 42.3949 106.653 45.1749C106.653 47.7812 104.741 49.6924 102.483 49.6924ZM83.1963 40.1362V43.2637H90.6675C90.4938 45.0012 89.7988 46.3912 88.93 47.2599C87.8875 48.3024 86.15 49.5187 83.1963 49.5187C78.505 49.5187 75.03 45.8699 75.03 41.1787C75.03 36.4874 78.6788 32.8387 83.1963 32.8387C85.6288 32.8387 87.54 33.8812 88.93 35.0974L91.1888 32.8387C89.2775 31.1012 86.845 29.7112 83.37 29.7112C77.115 29.7112 71.7288 34.9237 71.7288 41.1787C71.7288 47.4337 77.115 52.6462 83.37 52.6462C86.845 52.6462 89.2775 51.6037 91.3625 49.3449C93.4475 47.2599 94.1425 44.3062 94.1425 42.0474C94.1425 41.3524 94.1425 40.6574 93.9688 40.1362H83.1963ZM162.079 42.5687C161.384 40.8312 159.646 37.8774 155.824 37.8774C152.001 37.8774 148.874 40.8312 148.874 45.3487C148.874 49.5187 152.001 52.8199 156.171 52.8199C159.473 52.8199 161.558 50.7349 162.253 49.5187L159.82 47.7812C158.951 48.9974 157.909 49.8662 156.171 49.8662C154.434 49.8662 153.391 49.1712 152.523 47.6074L162.426 43.4374L162.079 42.5687ZM152.001 45.0012C152.001 42.2212 154.26 40.6574 155.824 40.6574C157.04 40.6574 158.256 41.3524 158.604 42.2212L152.001 45.0012ZM143.835 52.1249H147.136V30.4062H143.835V52.1249ZM138.623 39.4412C137.754 38.5724 136.364 37.7037 134.626 37.7037C130.978 37.7037 127.503 41.0049 127.503 45.1749C127.503 49.3449 130.804 52.4724 134.626 52.4724C136.364 52.4724 137.754 51.6037 138.449 50.7349H138.623V51.7774C138.623 54.5574 137.059 56.1212 134.626 56.1212C132.715 56.1212 131.325 54.7312 130.978 53.5149L128.198 54.7312C129.066 56.6424 131.151 59.0749 134.8 59.0749C138.623 59.0749 141.75 56.8162 141.75 51.4299V38.2249H138.623V39.4412ZM134.8 49.6924C132.541 49.6924 130.63 47.7812 130.63 45.1749C130.63 42.5687 132.541 40.6574 134.8 40.6574C137.059 40.6574 138.796 42.5687 138.796 45.1749C138.796 47.7812 137.059 49.6924 134.8 49.6924ZM177.195 30.4062H169.376V52.1249H172.678V43.9587H177.195C180.844 43.9587 184.319 41.3524 184.319 37.1824C184.319 33.0124 180.844 30.4062 177.195 30.4062ZM177.369 40.8312H172.678V33.3599H177.369C179.801 33.3599 181.191 35.4449 181.191 37.0087C181.018 38.9199 179.628 40.8312 177.369 40.8312ZM197.35 37.7037C194.918 37.7037 192.485 38.7462 191.616 41.0049L194.57 42.2212C195.265 41.0049 196.308 40.6574 197.524 40.6574C199.261 40.6574 200.825 41.6999 200.999 43.4374V43.6112C200.478 43.2637 199.088 42.7424 197.698 42.7424C194.57 42.7424 191.443 44.4799 191.443 47.6074C191.443 50.5612 194.049 52.4724 196.829 52.4724C199.088 52.4724 200.13 51.4299 200.999 50.3874H201.173V52.1249H204.3V43.7849C203.953 39.9624 200.999 37.7037 197.35 37.7037ZM197.003 49.6924C195.96 49.6924 194.396 49.1712 194.396 47.7812C194.396 46.0437 196.308 45.5224 197.871 45.5224C199.261 45.5224 199.956 45.8699 200.825 46.2174C200.478 48.3024 198.74 49.6924 197.003 49.6924ZM215.246 38.2249L211.598 47.6074H211.424L207.601 38.2249H204.126L209.86 51.4299L206.559 58.7274H209.86L218.721 38.2249H215.246ZM186.056 52.1249H189.358V30.4062H186.056V52.1249Z" fill="white"/>
<path d="M18.3876 13.0315C17.8664 13.5527 17.6926 14.4215 17.6926 15.464V53.8627C17.6926 54.9052 18.0401 55.774 18.5614 56.2952L18.7351 56.469L40.2801 34.924V34.5765L18.3876 13.0315Z" fill="url(#paint0_linear_141_6050)"/>
<path d="M47.23 42.2211L40.1062 35.0974V34.5761L47.23 27.4524L47.4037 27.6261L55.9175 32.4911C58.35 33.8811 58.35 36.1399 55.9175 37.5299L47.23 42.2211Z" fill="url(#paint1_linear_141_6050)"/>
<path d="M47.4037 42.0477L40.1062 34.7502L18.3875 56.469C19.2562 57.3377 20.4725 57.3377 22.0362 56.6427L47.4037 42.0477Z" fill="url(#paint2_linear_141_6050)"/>
<path d="M47.4037 27.4529L22.0362 13.0316C20.4725 12.1629 19.2562 12.3366 18.3875 13.2054L40.1062 34.7504L47.4037 27.4529Z" fill="url(#paint3_linear_141_6050)"/>
<path opacity="0.2" d="M47.23 41.874L22.0362 56.1215C20.6462 56.9903 19.43 56.8165 18.5612 56.1215L18.3875 56.2953L18.5612 56.469C19.43 57.164 20.6462 57.3378 22.0362 56.469L47.23 41.874Z" fill="black"/>
<path opacity="0.12" d="M18.3876 56.1215C17.8664 55.6002 17.6926 54.7315 17.6926 53.689V53.8627C17.6926 54.9052 18.0401 55.774 18.5614 56.2952V56.1215H18.3876ZM55.9176 37.009L47.2301 41.874L47.4039 42.0477L55.9176 37.1827C57.1339 36.4877 57.6551 35.619 57.6551 34.7502C57.6551 35.619 56.9601 36.314 55.9176 37.009Z" fill="black"/>
<path opacity="0.25" d="M22.0364 13.2052L55.9176 32.4915C56.9601 33.1865 57.6551 33.8815 57.6551 34.7502C57.6551 33.8815 57.1339 33.0127 55.9176 32.3177L22.0364 13.0315C19.6039 11.6415 17.6926 12.684 17.6926 15.464V15.6377C17.6926 13.0315 19.6039 11.8152 22.0364 13.2052Z" fill="white"/>
<defs>
<linearGradient id="paint0_linear_141_6050" x1="38.1951" y1="15.1339" x2="9.03466" y2="44.2926" gradientUnits="userSpaceOnUse">
<stop stop-color="#00A0FF"/>
<stop offset="0.007" stop-color="#00A1FF"/>
<stop offset="0.26" stop-color="#00BEFF"/>
<stop offset="0.512" stop-color="#00D2FF"/>
<stop offset="0.76" stop-color="#00DFFF"/>
<stop offset="1" stop-color="#00E3FF"/>
</linearGradient>
<linearGradient id="paint1_linear_141_6050" x1="59.104" y1="34.7516" x2="17.0617" y2="34.7516" gradientUnits="userSpaceOnUse">
<stop stop-color="#FFE000"/>
<stop offset="0.409" stop-color="#FFBD00"/>
<stop offset="0.775" stop-color="#FFA500"/>
<stop offset="1" stop-color="#FF9C00"/>
</linearGradient>
<linearGradient id="paint2_linear_141_6050" x1="43.4544" y1="38.7395" x2="3.91234" y2="78.2816" gradientUnits="userSpaceOnUse">
<stop stop-color="#FF3A44"/>
<stop offset="1" stop-color="#C31162"/>
</linearGradient>
<linearGradient id="paint3_linear_141_6050" x1="12.996" y1="0.30616" x2="30.6542" y2="17.9644" gradientUnits="userSpaceOnUse">
<stop stop-color="#32A071"/>
<stop offset="0.069" stop-color="#2DA771"/>
<stop offset="0.476" stop-color="#15CF74"/>
<stop offset="0.801" stop-color="#06E775"/>
<stop offset="1" stop-color="#00F076"/>
</linearGradient>
</defs>
</svg>